# xmcd
#
# Track frame offsets:
#	150
#	22851
#	46188
#	62435
#	78545
#	96792
#	115447
#	135148
#	153668
#	166551
#	181617
#
# Disc length: 2804 seconds
#
# Revision: 0
# Processed by: cddbd v1.5.2PL0 Copyright (c) Steve Scherf et al.
# Submitted via: dBpowerAMP V4.0
#
DISCID=730af20b
DTITLE=Blueshot - Slip'n'Slide
DYEAR=2009
DGENRE=Blues
TTITLE0=Drive me crazy
TTITLE1=Dentist
TTITLE2=Flame
TTITLE3=Lonely
TTITLE4=Lonesome lane
TTITLE5=The phone
TTITLE6=I'm late
TTITLE7=Conscience
TTITLE8=The poodle
TTITLE9=What's inside
TTITLE10=Where ever you are
EXTD=
EXTT0=
EXTT1=
EXTT2=
EXTT3=
EXTT4=
EXTT5=
EXTT6=
EXTT7=
EXTT8=
EXTT9=
EXTT10=
PLAYORDER=
